<?xml version="1.0" standalone="no"?>
<!DOCTYPE svg PUBLIC "-//W3C//DTD SVG 20010904//EN"
 "http://www.w3.org/TR/2001/REC-SVG-20010904/DTD/svg10.dtd">
<svg version="1.0" xmlns="http://www.w3.org/2000/svg"
 width="300.000000pt" height="300.000000pt" viewBox="0 0 300.000000 300.000000"
 preserveAspectRatio="xMidYMid meet">

<g transform="translate(0.000000,300.000000) scale(0.100000,-0.100000)"
fill="#000000" stroke="none">
<path d="M340 2380 l0 -280 280 0 280 0 0 280 0 280 -280 0 -280 0 0 -280z
m480 0 l0 -200 -200 0 -200 0 0 200 0 200 200 0 200 0 0 -200z"/>
<path d="M500 2380 l0 -120 120 0 120 0 0 120 0 120 -120 0 -120 0 0 -120z"/>
<path d="M980 2620 l0 -40 120 0 120 0 0 -80 0 -80 -40 0 -40 0 0 40 0 40 -40
0 -40 0 0 -40 0 -40 40 0 40 0 0 -80 0 -80 -40 0 -40 0 0 -40 0 -40 -40 0 -40
0 0 -80 0 -80 40 0 40 0 0 -40 0 -40 -80 0 -80 0 0 40 0 40 -40 0 -40 0 0 -40
0 -40 -40 0 -40 0 0 40 0 40 -80 0 -80 0 0 -40 0 -40 -40 0 -40 0 0 40 0 40
-80 0 -80 0 0 -80 0 -80 40 0 40 0 0 40 0 40 40 0 40 0 0 -80 0 -80 -80 0 -80
0 0 -40 0 -40 40 0 40 0 0 -40 0 -40 -40 0 -40 0 0 -40 0 -40 40 0 40 0 0 40
0 40 40 0 40 0 0 -80 0 -80 -40 0 -40 0 0 -40 0 -40 -40 0 -40 0 0 -200 0
-200 200 0 200 0 0 40 0 40 -40 0 -40 0 0 40 0 40 -40 0 -40 0 0 80 0 80 -40
0 -40 0 0 80 0 80 40 0 40 0 0 -40 0 -40 80 0 80 0 0 -40 0 -40 -40 0 -40 0 0
-40 0 -40 40 0 40 0 0 -40 0 -40 120 0 120 0 0 40 0 40 -80 0 -80 0 0 40 0 40
40 0 40 0 0 40 0 40 40 0 40 0 0 -40 0 -40 40 0 40 0 0 40 0 40 40 0 40 0 0
-40 0 -40 40 0 40 0 0 -40 0 -40 -40 0 -40 0 0 -40 0 -40 -40 0 -40 0 0 -40 0
-40 40 0 40 0 0 40 0 40 40 0 40 0 0 -80 0 -80 -120 0 -120 0 0 -40 0 -40 40
0 40 0 0 -40 0 -40 40 0 40 0 0 -40 0 -40 -80 0 -80 0 0 -80 0 -80 40 0 40 0
0 40 0 40 40 0 40 0 0 -80 0 -80 40 0 40 0 0 -40 0 -40 -40 0 -40 0 0 -40 0
-40 320 0 320 0 0 40 0 40 40 0 40 0 0 -40 0 -40 40 0 40 0 0 40 0 40 -40 0
-40 0 0 40 0 40 -40 0 -40 0 0 40 0 40 80 0 80 0 0 40 0 40 120 0 120 0 0 -80
0 -80 -40 0 -40 0 0 40 0 40 -40 0 -40 0 0 -40 0 -40 40 0 40 0 0 -40 0 -40
-40 0 -40 0 0 -40 0 -40 200 0 200 0 0 80 0 80 40 0 40 0 0 -40 0 -40 40 0 40
0 0 40 0 40 40 0 40 0 0 40 0 40 -40 0 -40 0 0 80 0 80 -40 0 -40 0 0 40 0 40
-40 0 -40 0 0 40 0 40 40 0 40 0 0 40 0 40 40 0 40 0 0 -40 0 -40 40 0 40 0 0
120 0 120 -40 0 -40 0 0 80 0 80 -40 0 -40 0 0 80 0 80 40 0 40 0 0 40 0 40
-40 0 -40 0 0 80 0 80 40 0 40 0 0 -40 0 -40 40 0 40 0 0 40 0 40 -40 0 -40 0
0 40 0 40 -40 0 -40 0 0 -40 0 -40 -40 0 -40 0 0 80 0 80 40 0 40 0 0 40 0 40
-160 0 -160 0 0 40 0 40 -40 0 -40 0 0 -80 0 -80 120 0 120 0 0 -40 0 -40 -40
0 -40 0 0 -80 0 -80 80 0 80 0 0 -160 0 -160 -80 0 -80 0 0 -40 0 -40 -40 0
-40 0 0 40 0 40 -160 0 -160 0 0 40 0 40 40 0 40 0 0 40 0 40 -80 0 -80 0 0
40 0 40 -120 0 -120 0 0 40 0 40 40 0 40 0 0 80 0 80 40 0 40 0 0 -80 0 -80
80 0 80 0 0 -40 0 -40 40 0 40 0 0 120 0 120 40 0 40 0 0 40 0 40 -40 0 -40 0
0 40 0 40 40 0 40 0 0 40 0 40 -80 0 -80 0 0 80 0 80 40 0 40 0 0 -40 0 -40
40 0 40 0 0 40 0 40 -40 0 -40 0 0 40 0 40 -40 0 -40 0 0 40 0 40 -160 0 -160
0 0 40 0 40 -40 0 -40 0 0 40 0 40 -40 0 -40 0 0 40 0 40 40 0 40 0 0 40 0 40
-40 0 -40 0 0 -40 0 -40 -40 0 -40 0 0 40 0 40 -160 0 -160 0 0 -40z m400
-160 l0 -40 40 0 40 0 0 -40 0 -40 40 0 40 0 0 -40 0 -40 -80 0 -80 0 0 -40 0
-40 40 0 40 0 0 -40 0 -40 40 0 40 0 0 40 0 40 40 0 40 0 0 -40 0 -40 40 0 40
0 0 80 0 80 80 0 80 0 0 -40 0 -40 -40 0 -40 0 0 -80 0 -80 -40 0 -40 0 0 -40
0 -40 40 0 40 0 0 -40 0 -40 40 0 40 0 0 -40 0 -40 -80 0 -80 0 0 80 0 80 -40
0 -40 0 0 80 0 80 -40 0 -40 0 0 -80 0 -80 -40 0 -40 0 0 -40 0 -40 40 0 40 0
0 -120 0 -120 -40 0 -40 0 0 40 0 40 -40 0 -40 0 0 -40 0 -40 -40 0 -40 0 0
-40 0 -40 120 0 120 0 0 -40 0 -40 -120 0 -120 0 0 -40 0 -40 -80 0 -80 0 0
40 0 40 -80 0 -80 0 0 80 0 80 -40 0 -40 0 0 -40 0 -40 -40 0 -40 0 0 40 0 40
40 0 40 0 0 40 0 40 -80 0 -80 0 0 -80 0 -80 -40 0 -40 0 0 40 0 40 -40 0 -40
0 0 40 0 40 -40 0 -40 0 0 40 0 40 120 0 120 0 0 40 0 40 40 0 40 0 0 40 0 40
40 0 40 0 0 -40 0 -40 80 0 80 0 0 40 0 40 40 0 40 0 0 80 0 80 -40 0 -40 0 0
40 0 40 40 0 40 0 0 40 0 40 40 0 40 0 0 -40 0 -40 40 0 40 0 0 40 0 40 40 0
40 0 0 40 0 40 -40 0 -40 0 0 80 0 80 40 0 40 0 0 -40z m-720 -560 l0 -40 -40
0 -40 0 0 40 0 40 40 0 40 0 0 -40z m240 -480 l0 -40 -80 0 -80 0 0 40 0 40
80 0 80 0 0 -40z m880 -40 l0 -80 40 0 40 0 0 -40 0 -40 40 0 40 0 0 -40 0
-40 40 0 40 0 0 40 0 40 40 0 40 0 0 -80 0 -80 -120 0 -120 0 0 -120 0 -120
40 0 40 0 0 -40 0 -40 -80 0 -80 0 0 -80 0 -80 -40 0 -40 0 0 40 0 40 -40 0
-40 0 0 80 0 80 -40 0 -40 0 0 80 0 80 -40 0 -40 0 0 -40 0 -40 -40 0 -40 0 0
80 0 80 -40 0 -40 0 0 40 0 40 -40 0 -40 0 0 40 0 40 40 0 40 0 0 40 0 40 40
0 40 0 0 40 0 40 80 0 80 0 0 -40 0 -40 80 0 80 0 0 40 0 40 -40 0 -40 0 0 40
0 40 80 0 80 0 0 -80z m720 -160 l0 -80 40 0 40 0 0 -40 0 -40 -40 0 -40 0 0
40 0 40 -120 0 -120 0 0 40 0 40 80 0 80 0 0 40 0 40 40 0 40 0 0 -80z m-80
-240 l0 -80 -40 0 -40 0 0 80 0 80 40 0 40 0 0 -80z m-1120 -40 l0 -40 -40 0
-40 0 0 -40 0 -40 -40 0 -40 0 0 40 0 40 40 0 40 0 0 40 0 40 40 0 40 0 0 -40z
m960 -80 l0 -120 -120 0 -120 0 0 120 0 120 120 0 120 0 0 -120z m-800 -80 l0
-40 -40 0 -40 0 0 -80 0 -80 120 0 120 0 0 -40 0 -40 -40 0 -40 0 0 -40 0 -40
-80 0 -80 0 0 40 0 40 -80 0 -80 0 0 80 0 80 40 0 40 0 0 40 0 40 40 0 40 0 0
40 0 40 40 0 40 0 0 -40z m960 0 l0 -40 40 0 40 0 0 -40 0 -40 -40 0 -40 0 0
40 0 40 -40 0 -40 0 0 40 0 40 40 0 40 0 0 -40z m-80 -240 l0 -120 -80 0 -80
0 0 40 0 40 40 0 40 0 0 80 0 80 40 0 40 0 0 -120z m-560 -80 l0 -40 -40 0
-40 0 0 40 0 40 40 0 40 0 0 -40z"/>
<path d="M1140 2140 l0 -40 40 0 40 0 0 40 0 40 -40 0 -40 0 0 -40z"/>
<path d="M1300 2060 l0 -120 40 0 40 0 0 40 0 40 40 0 40 0 0 40 0 40 -40 0
-40 0 0 40 0 40 -40 0 -40 0 0 -120z"/>
<path d="M1140 1900 l0 -40 -40 0 -40 0 0 -40 0 -40 -40 0 -40 0 0 -80 0 -80
80 0 80 0 0 -40 0 -40 40 0 40 0 0 80 0 80 -80 0 -80 0 0 40 0 40 40 0 40 0 0
40 0 40 40 0 40 0 0 40 0 40 -40 0 -40 0 0 -40z"/>
<path d="M820 1820 l0 -40 40 0 40 0 0 40 0 40 -40 0 -40 0 0 -40z"/>
<path d="M1300 1820 l0 -40 80 0 80 0 0 40 0 40 -80 0 -80 0 0 -40z"/>
<path d="M1460 1220 l0 -80 -40 0 -40 0 0 40 0 40 -40 0 -40 0 0 -40 0 -40 40
0 40 0 0 -40 0 -40 40 0 40 0 0 40 0 40 40 0 40 0 0 -80 0 -80 40 0 40 0 0
-80 0 -80 40 0 40 0 0 -40 0 -40 40 0 40 0 0 40 0 40 -40 0 -40 0 0 80 0 80
40 0 40 0 0 40 0 40 40 0 40 0 0 40 0 40 -80 0 -80 0 0 40 0 40 40 0 40 0 0
40 0 40 -40 0 -40 0 0 -40 0 -40 -40 0 -40 0 0 -40 0 -40 -40 0 -40 0 0 80 0
80 -40 0 -40 0 0 -80z"/>
<path d="M2100 860 l0 -40 40 0 40 0 0 40 0 40 -40 0 -40 0 0 -40z"/>
<path d="M1620 2620 l0 -40 40 0 40 0 0 -80 0 -80 80 0 80 0 0 40 0 40 40 0
40 0 0 -80 0 -80 40 0 40 0 0 160 0 160 -80 0 -80 0 0 -80 0 -80 -40 0 -40 0
0 80 0 80 -80 0 -80 0 0 -40z"/>
<path d="M2100 2380 l0 -280 280 0 280 0 0 280 0 280 -280 0 -280 0 0 -280z
m480 0 l0 -200 -200 0 -200 0 0 200 0 200 200 0 200 0 0 -200z"/>
<path d="M2260 2380 l0 -120 120 0 120 0 0 120 0 120 -120 0 -120 0 0 -120z"/>
<path d="M2580 1940 l0 -80 40 0 40 0 0 80 0 80 -40 0 -40 0 0 -80z"/>
<path d="M2020 1660 l0 -40 40 0 40 0 0 40 0 40 -40 0 -40 0 0 -40z"/>
<path d="M2100 1500 l0 -40 -40 0 -40 0 0 -40 0 -40 40 0 40 0 0 40 0 40 40 0
40 0 0 -40 0 -40 80 0 80 0 0 40 0 40 -80 0 -80 0 0 40 0 40 -40 0 -40 0 0
-40z"/>
<path d="M820 1020 l0 -40 40 0 40 0 0 40 0 40 -40 0 -40 0 0 -40z"/>
<path d="M340 620 l0 -280 280 0 280 0 0 280 0 280 -280 0 -280 0 0 -280z
m480 0 l0 -200 -200 0 -200 0 0 200 0 200 200 0 200 0 0 -200z"/>
<path d="M500 620 l0 -120 120 0 120 0 0 120 0 120 -120 0 -120 0 0 -120z"/>
<path d="M980 420 l0 -80 40 0 40 0 0 80 0 80 -40 0 -40 0 0 -80z"/>
</g>
</svg>
